<?xml version="1.0" encoding="UTF-8"?>
<svg version="1.1" xmlns="http://www.w3.org/2000/svg" width="1024" height="682">
<path d="M0 0 C337.92 0 675.84 0 1024 0 C1024 225.06 1024 450.12 1024 682 C686.08 682 348.16 682 0 682 C0 456.94 0 231.88 0 0 Z " fill="#212120" transform="translate(0,0)"/>
<path d="M0 0 C9.4875 -0.061875 18.975 -0.12375 28.75 -0.1875 C33.2064502 -0.22846802 33.2064502 -0.22846802 37.75292969 -0.27026367 C40.14257401 -0.27903634 42.53222286 -0.28667843 44.921875 -0.29296875 C46.13439941 -0.30831665 47.34692383 -0.32366455 48.59619141 -0.33947754 C61.20001467 -0.34329688 71.31275808 2.33387753 82 9 C82.928125 9.5775 83.85625 10.155 84.8125 10.75 C92.51465973 18.67222144 95.4253937 27.8862675 95.44042969 38.73974609 C95.18129884 49.04137504 90.46624623 57.91344179 83.75 65.5625 C74.39376946 73.85552253 64.24701529 77.18448253 51.85546875 77.09765625 C50.83096619 77.09614563 50.83096619 77.09614563 49.7857666 77.09460449 C47.2529938 77.08940257 44.72024508 77.07544145 42.1875 77.0625 C36.515625 77.041875 30.84375 77.02125 25 77 C25 89.54 25 102.08 25 115 C16.75 115 8.5 115 0 115 C0 77.05 0 39.1 0 0 Z " fill="#F8F8F8" transform="translate(463,250)"/>
<path d="M0 0 C4.434375 -0.0825 8.86875 -0.165 13.4375 -0.25 C15.50729126 -0.30462402 15.50729126 -0.30462402 17.61889648 -0.36035156 C26.39608594 -0.43903092 34.40875154 0.67240148 41 7 C43.71896399 11.52175533 43.49894025 15.86804309 43 21 C41.04671336 27.6194714 37.9196656 30.49110899 32.24316406 34.12451172 C29.11416452 35.34573422 26.39929532 35.22372284 23.046875 35.1953125 C21.83870117 35.19031738 20.63052734 35.18532227 19.38574219 35.18017578 C17.85594727 35.16196777 16.32615234 35.14375977 14.75 35.125 C9.8825 35.08375 5.015 35.0425 0 35 C0 23.45 0 11.9 0 0 Z " fill="#1B1B1B" transform="translate(489,271)"/>
<path d="M0 0 C7.92 0 15.84 0 24 0 C24 7.59 24 15.18 24 23 C16.08 23 8.16 23 0 23 C0 15.41 0 7.82 0 0 Z " fill="#D4ED81" transform="translate(557,343)"/>
<path d="M0 0 C3.3 0.99 6.6 1.98 10 3 C10 2.34 10 1.68 10 1 C10.66 1 11.32 1 12 1 C12 1.66 12 2.32 12 3 C12.61875 3.144375 13.2375 3.28875 13.875 3.4375 C16 4 16 4 18 5 C18.19720979 8.58286819 18.38107522 12.16630057 18.5625 15.75 C18.61857422 16.76578125 18.67464844 17.7815625 18.73242188 18.828125 C18.78076172 19.8078125 18.82910156 20.7875 18.87890625 21.796875 C18.9260376 22.69760742 18.97316895 23.59833984 19.02172852 24.52636719 C19.00110175 26.87457408 18.67823071 28.76206702 18 31 C13.22907044 32.23402862 8.57530554 32.11265112 3.6875 32.0625 C2.43356445 32.05573242 2.43356445 32.05573242 1.15429688 32.04882812 C-0.89716649 32.03710548 -2.94859273 32.01917203 -5 32 C-5 31.34 -5 30.68 -5 30 C-5.99 29.67 -6.98 29.34 -8 29 C-0.08 29 7.84 29 16 29 C16 21.41 16 13.82 16 6 C8.08 6 0.16 6 -8 6 C-8 13.26 -8 20.52 -8 28 C-10 26 -10 26 -10.24291992 23.87695312 C-10.23881104 23.02037109 -10.23470215 22.16378906 -10.23046875 21.28125 C-10.22853516 20.34925781 -10.22660156 19.41726563 -10.22460938 18.45703125 C-10.21236328 17.48121094 -10.20011719 16.50539063 -10.1875 15.5 C-10.18685547 14.52417969 -10.18621094 13.54835938 -10.18554688 12.54296875 C-10.14034598 5.28069196 -10.14034598 5.28069196 -9 3 C-5.44307323 2.14943055 -3.50729422 1.83090193 0 3 C0 2.01 0 1.02 0 0 Z " fill="#1E2509" transform="translate(565,337)"/>
<path d="M0 0 C3.3 0.99 6.6 1.98 10 3 C10 2.34 10 1.68 10 1 C10.66 1 11.32 1 12 1 C12 1.66 12 2.32 12 3 C13.32 3.33 14.64 3.66 16 4 C16 4.33 16 4.66 16 5 C8.08 5 0.16 5 -8 5 C-8 12.59 -8 20.18 -8 28 C-10 26 -10 26 -10.24291992 23.87695312 C-10.23881104 23.02037109 -10.23470215 22.16378906 -10.23046875 21.28125 C-10.22853516 20.34925781 -10.22660156 19.41726563 -10.22460938 18.45703125 C-10.21236328 17.48121094 -10.20011719 16.50539063 -10.1875 15.5 C-10.18685547 14.52417969 -10.18621094 13.54835938 -10.18554688 12.54296875 C-10.14034598 5.28069196 -10.14034598 5.28069196 -9 3 C-5.44307323 2.14943055 -3.50729422 1.83090193 0 3 C0 2.01 0 1.02 0 0 Z " fill="#111407" transform="translate(565,337)"/>
<path d="M0 0 C2.31 0.66 4.62 1.32 7 2 C6.01 2.495 6.01 2.495 5 3 C5 3.66 5 4.32 5 5 C3.35 5 1.7 5 0 5 C0 3.35 0 1.7 0 0 Z " fill="#282828" transform="translate(518,272)"/>
</svg>
