<?xml version="1.0" encoding="UTF-8"?>
<svg version="1.1" xmlns="http://www.w3.org/2000/svg" width="1024" height="682">
<path d="M0 0 C337.92 0 675.84 0 1024 0 C1024 225.06 1024 450.12 1024 682 C686.08 682 348.16 682 0 682 C0 456.94 0 231.88 0 0 Z " fill="#20201F" transform="translate(0,0)"/>
<path d="M0 0 C5.89875 -0.103125 11.7975 -0.20625 17.875 -0.3125 C20.63593018 -0.38078003 20.63593018 -0.38078003 23.45263672 -0.45043945 C33.24680979 -0.59225997 41.41332521 -0.28863345 48.91748047 6.81518555 C54.3560601 12.60531791 55.46047708 18.11714248 55.31640625 25.92578125 C54.70453048 31.87079644 52.44413962 36.19482547 48.75 40.8125 C43.42738466 45.04639856 37.44192822 48.14390556 30.55078125 48.09765625 C29.78677002 48.09515869 29.02275879 48.09266113 28.2355957 48.09008789 C27.27097412 48.08098389 26.30635254 48.07187988 25.3125 48.0625 C20.7028125 48.0315625 20.7028125 48.0315625 16 48 C16 54.93 16 61.86 16 69 C10.72 69 5.44 69 0 69 C0 46.23 0 23.46 0 0 Z " fill="#F9F9F9" transform="translate(266,297)"/>
<path d="M0 0 C5.28 0 10.56 0 16 0 C16 8.91 16 17.82 16 27 C25.57 27 35.14 27 45 27 C45 18.09 45 9.18 45 0 C49.95 0 54.9 0 60 0 C60 22.77 60 45.54 60 69 C55.05 69 50.1 69 45 69 C45 59.43 45 49.86 45 40 C35.43 40 25.86 40 16 40 C16 49.57 16 59.14 16 69 C10.72 69 5.44 69 0 69 C0 46.23 0 23.46 0 0 Z " fill="#FBFBFB" transform="translate(680,297)"/>
<path d="M0 0 C15.84 0 31.68 0 48 0 C48 4.29 48 8.58 48 13 C37.44 13 26.88 13 16 13 C16 17.95 16 22.9 16 28 C25.9 28 35.8 28 46 28 C46 31.96 46 35.92 46 40 C36.1 40 26.2 40 16 40 C16 45.28 16 50.56 16 56 C26.56 56 37.12 56 48 56 C48 60.29 48 64.58 48 69 C32.16 69 16.32 69 0 69 C0 46.23 0 23.46 0 0 Z " fill="#F9F9F9" transform="translate(550,297)"/>
<path d="M0 0 C6.35725429 4.0705583 10.89611418 8.44223177 14.07421875 15.328125 C14.07421875 16.318125 14.07421875 17.308125 14.07421875 18.328125 C12.51455657 18.836908 10.95132634 19.33475969 9.38671875 19.828125 C8.51660156 20.1065625 7.64648438 20.385 6.75 20.671875 C4.01405875 21.34287957 1.8738223 21.65333147 -0.92578125 21.328125 C-2.19267475 19.86632481 -3.45426829 18.39720187 -4.6328125 16.86328125 C-7.36600416 13.61813224 -10.37741804 12.53894601 -14.5078125 11.9765625 C-20.05666505 11.68811326 -24.20726452 12.01049501 -28.48828125 15.74609375 C-34.29376385 22.13527977 -34.75381744 29.16479627 -34.375 37.53125 C-33.58783565 44.18449996 -31.01024135 47.29450539 -26.36328125 51.828125 C-21.22096102 54.07204656 -16.44874096 54.07918683 -10.92578125 53.328125 C-7.12184635 51.49408496 -5.4052755 50.00869749 -2.98828125 46.578125 C-0.92578125 44.328125 -0.92578125 44.328125 2.26171875 43.890625 C6.63088113 44.39200429 10.81558421 45.24656702 15.07421875 46.328125 C12.66107858 54.27729261 8.66040907 59.37947963 2.26171875 64.640625 C-8.2042158 70.18141388 -18.97636542 70.85389644 -30.28125 67.44140625 C-36.56054054 64.79798261 -42.26807573 60.07594796 -45.92578125 54.328125 C-46.36921875 53.66296875 -46.81265625 52.9978125 -47.26953125 52.3125 C-52.8113821 42.52189683 -52.4936844 29.79975286 -50.2265625 18.99609375 C-48.32415576 13.77049549 -45.15853899 8.98039025 -40.92578125 5.328125 C-40.26578125 5.328125 -39.60578125 5.328125 -38.92578125 5.328125 C-38.92578125 4.668125 -38.92578125 4.008125 -38.92578125 3.328125 C-27.75721477 -4.16217108 -12.39016738 -6.14102537 0 0 Z " fill="#F7F7F7" transform="translate(656.92578125,298.671875)"/>
<path d="M0 0 C15.84 0 31.68 0 48 0 C48 4.29 48 8.58 48 13 C37.44 13 26.88 13 16 13 C16 17.95 16 22.9 16 28 C25.57 28 35.14 28 45 28 C45 31.96 45 35.92 45 40 C35.43 40 25.86 40 16 40 C16 45.28 16 50.56 16 56 C26.56 56 37.12 56 48 56 C48 60.29 48 64.58 48 69 C32.16 69 16.32 69 0 69 C0 46.23 0 23.46 0 0 Z " fill="#F9F9F9" transform="translate(401,297)"/>
<path d="M0 0 C5.28349345 4.24976647 9.94492864 8.36716193 10.875 15.3125 C5.79893499 17.74478115 1.56265202 19.49306038 -4.125 19.3125 C-6.00477971 17.72657092 -7.30870282 16.09613091 -8.703125 14.07421875 C-11.05624261 11.15868017 -13.22224141 10.43346201 -16.89453125 9.94140625 C-22.64121002 9.81599734 -27.25689966 9.72551071 -31.72265625 13.65625 C-37.08894936 19.99415607 -37.82887031 26.79839975 -37.57421875 34.9296875 C-36.7190386 41.36956582 -34.07690017 45.40707365 -29.5 49.875 C-23.57940281 52.39673584 -17.75975828 52.17478453 -11.6875 50.1875 C-8.89058355 48.41851021 -8.89058355 48.41851021 -7.375 45.125 C-5.125 42.3125 -5.125 42.3125 -2.90234375 41.890625 C2.0749609 41.86059601 6.97743088 42.46074885 11.875 43.3125 C9.91816369 51.36348368 6.51454114 57.43598449 -0.6640625 61.88671875 C-10.49185299 66.94556666 -21.33650029 67.96370173 -32.18359375 65.6640625 C-42.23495487 61.99476686 -47.52408147 55.57439519 -51.99609375 46.08203125 C-55.77717447 36.80595432 -55.5111591 23.74189998 -52.125 14.3125 C-47.69256383 5.61756131 -41.39909442 -0.48372193 -32.125 -3.6875 C-20.75483879 -5.96471716 -10.22994987 -5.52417293 0 0 Z " fill="#F8F8F8" transform="translate(381.125,300.6875)"/>
<path d="M0 0 C18.15 0 36.3 0 55 0 C55 4.29 55 8.58 55 13 C48.4 13 41.8 13 35 13 C35 31.48 35 49.96 35 69 C29.72 69 24.44 69 19 69 C19 50.52 19 32.04 19 13 C12.73 13 6.46 13 0 13 C0 8.71 0 4.42 0 0 Z " fill="#F9F9F9" transform="translate(488,297)"/>
<path d="M0 0 C3.5578125 -0.0928125 3.5578125 -0.0928125 7.1875 -0.1875 C8.29387817 -0.22846802 8.29387817 -0.22846802 9.42260742 -0.27026367 C14.87217854 -0.33870528 17.89260587 1.0379434 21.8125 4.6875 C23.56082685 8.09213649 23.80505827 11.31136937 23 15 C20.82425584 17.69105198 19.08934144 19.45532928 16 21 C13.28024285 21.07187519 10.59325368 21.0927862 7.875 21.0625 C5.27625 21.041875 2.6775 21.02125 0 21 C0 14.07 0 7.14 0 0 Z " fill="#222222" transform="translate(282,310)"/>
<path d="M0 0 C9.24 0 18.48 0 28 0 C28 4.29 28 8.58 28 13 C18.76 13 9.52 13 0 13 C0 8.71 0 4.42 0 0 Z " fill="#F5F5F5" transform="translate(458,327)"/>
<path d="M0 0 C6.6 0 13.2 0 20 0 C20 5.94 20 11.88 20 18 C13.4 18 6.8 18 0 18 C0 12.06 0 6.12 0 0 Z " fill="#9DE54D" transform="translate(753,348)"/>
<path d="M0 0 C0.99 0.66 1.98 1.32 3 2 C3.2487793 4.33837891 3.2487793 4.33837891 3.07421875 7.2265625 C2.99204102 8.7734375 2.99204102 8.7734375 2.90820312 10.3515625 C2.83537109 11.43179687 2.76253906 12.51203125 2.6875 13.625 C2.62626953 14.71296875 2.56503906 15.8009375 2.50195312 16.921875 C2.34835798 19.61569749 2.18046592 22.30786572 2 25 C-1.96 25.495 -1.96 25.495 -6 26 C-6.05379226 23.04142591 -6.09357093 20.08382279 -6.125 17.125 C-6.14175781 16.28324219 -6.15851563 15.44148438 -6.17578125 14.57421875 C-6.18222656 13.76855469 -6.18867188 12.96289062 -6.1953125 12.1328125 C-6.20578613 11.38918457 -6.21625977 10.64555664 -6.22705078 9.87939453 C-6 8 -6 8 -4 6 C-4 4.68 -4 3.36 -4 2 C-2.68 1.34 -1.36 0.68 0 0 Z " fill="#161616" transform="translate(398,316)"/>
<path d="M0 0 C6.6 0 13.2 0 20 0 C20 5.94 20 11.88 20 18 C18.68 17.67 17.36 17.34 16 17 C16.66 17 17.32 17 18 17 C18 12.05 18 7.1 18 2 C13.05 2.33 8.1 2.66 3 3 C2.67 7.62 2.34 12.24 2 17 C6.29 17 10.58 17 15 17 C15 17.33 15 17.66 15 18 C10.05 18 5.1 18 0 18 C0 12.06 0 6.12 0 0 Z " fill="#8FBC5A" transform="translate(753,348)"/>
<path d="M0 0 C4.95 0 9.9 0 15 0 C15 1.32 15 2.64 15 4 C8.565 4.495 8.565 4.495 2 5 C1.67 7.64 1.34 10.28 1 13 C5.95 13 10.9 13 16 13 C16 13.33 16 13.66 16 14 C10.72 14 5.44 14 0 14 C0 9.38 0 4.76 0 0 Z " fill="#191919" transform="translate(418,338)"/>
<path d="M0 0 C0.33 0 0.66 0 1 0 C1.33 5.61 1.66 11.22 2 17 C8.27 17.33 14.54 17.66 21 18 C21 18.33 21 18.66 21 19 C10.605 19.495 10.605 19.495 0 20 C0 19.01 0 18.02 0 17 C-0.66 16.67 -1.32 16.34 -2 16 C-1.34 16 -0.68 16 0 16 C0 10.72 0 5.44 0 0 Z " fill="#132205" transform="translate(752,349)"/>
<path d="M0 0 C0.80179688 0.05220703 1.60359375 0.10441406 2.4296875 0.15820312 C4.41179103 0.28798371 6.39344499 0.42459735 8.375 0.5625 C8.375 1.2225 8.375 1.8825 8.375 2.5625 C2.105 2.5625 -4.165 2.5625 -10.625 2.5625 C-10.625 1.9025 -10.625 1.2425 -10.625 0.5625 C-7.2967269 -1.10163655 -3.62766027 -0.25617406 0 0 Z " fill="#162804" transform="translate(764.625,345.4375)"/>
<path d="M0 0 C0 3.3 0 6.6 0 10 C-1.98 10.99 -1.98 10.99 -4 12 C-4.08090971 10.37581255 -4.13914995 8.75048255 -4.1875 7.125 C-4.22230469 6.22007812 -4.25710938 5.31515625 -4.29296875 4.3828125 C-4.19628906 3.59648437 -4.09960938 2.81015625 -4 2 C-1 0 -1 0 0 0 Z " fill="#141415" transform="translate(627,327)"/>
<path d="M0 0 C0.33 0 0.66 0 1 0 C1 3.3 1 6.6 1 10 C2.32 10 3.64 10 5 10 C5.33 11.32 5.66 12.64 6 14 C3.69 14.33 1.38 14.66 -1 15 C-1 11.90522086 -0.76520744 8.89553654 -0.5 5.8125 C-0.4071875 4.72582031 -0.314375 3.63914062 -0.21875 2.51953125 C-0.11046875 1.27236328 -0.11046875 1.27236328 0 0 Z " fill="#151515" transform="translate(450,354)"/>
<path d="M0 0 C0.99 0.495 0.99 0.495 2 1 C3.19811544 5.57462259 2.83154187 9.38032292 2 14 C2.66 14.33 3.32 14.66 4 15 C2.02 15.99 2.02 15.99 0 17 C0 11.39 0 5.78 0 0 Z " fill="#0D1D07" transform="translate(773,348)"/>
<path d="M0 0 C0.99 0.33 1.98 0.66 3 1 C3.33 1.99 3.66 2.98 4 4 C2.68 4.33 1.36 4.66 0 5 C-0.33 6.32 -0.66 7.64 -1 9 C-1.99 9 -2.98 9 -4 9 C-3.6875 5.625 -3.6875 5.625 -3 2 C-2.01 1.34 -1.02 0.68 0 0 Z " fill="#1A1A1A" transform="translate(631,312)"/>
<path d="M0 0 C0.33 0 0.66 0 1 0 C1 4.29 1 8.58 1 13 C2.98 13.495 2.98 13.495 5 14 C5.33 13.34 5.66 12.68 6 12 C6.33 13.32 6.66 14.64 7 16 C5.35 16.66 3.7 17.32 2 18 C-0.37590142 14.29583874 -0.20500286 11.07015427 -0.125 6.75 C-0.10695313 5.48671875 -0.08890625 4.2234375 -0.0703125 2.921875 C-0.04710937 1.95765625 -0.02390625 0.9934375 0 0 Z " fill="#3D3D3D" transform="translate(343,325)"/>
<path d="M0 0 C0.33 0 0.66 0 1 0 C1 2.64 1 5.28 1 8 C1.99 8.33 2.98 8.66 4 9 C1.69 9 -0.62 9 -3 9 C-2.25 2.25 -2.25 2.25 0 0 Z " fill="#1B1B1A" transform="translate(285,322)"/>
<path d="M0 0 C2.475 0.99 2.475 0.99 5 2 C4.67 2.66 4.34 3.32 4 4 C0.85069107 5.04976964 -1.38814456 5.10131595 -4.6875 5.0625 C-5.68136719 5.05347656 -6.67523438 5.04445313 -7.69921875 5.03515625 C-8.83810547 5.01775391 -8.83810547 5.01775391 -10 5 C-10 4.67 -10 4.34 -10 4 C-6.7 3.34 -3.4 2.68 0 2 C0 1.34 0 0.68 0 0 Z " fill="#2F2F2F" transform="translate(365,348)"/>
<path d="M0 0 C0.33 0.66 0.66 1.32 1 2 C1.99 2.33 2.98 2.66 4 3 C3.01 5.31 2.02 7.62 1 10 C0.34 9.34 -0.32 8.68 -1 8 C-0.96712417 5.27130593 -0.43602229 2.7033382 0 0 Z " fill="#161616" transform="translate(329,304)"/>
<path d="M0 0 C2.97 0.495 2.97 0.495 6 1 C5.01 1.495 5.01 1.495 4 2 C4.33 3.32 4.66 4.64 5 6 C3.02 5.34 1.04 4.68 -1 4 C-0.67 2.68 -0.34 1.36 0 0 Z " fill="#2D2D2D" transform="translate(377,295)"/>
<path d="M0 0 C0.33 0 0.66 0 1 0 C1 5.28 1 10.56 1 16 C0.67 16 0.34 16 0 16 C-1.79172099 9.92193109 -2.28545662 5.96758117 0 0 Z " fill="#0E0E0E" transform="translate(325,324)"/>
<path d="M0 0 C0.99 0.33 1.98 0.66 3 1 C1.77065985 4.68802044 0.06140622 5.72356973 -3 8 C-3.66 7.67 -4.32 7.34 -5 7 C-4.360625 6.21625 -3.72125 5.4325 -3.0625 4.625 C-1.01857687 2.20460719 -1.01857687 2.20460719 0 0 Z " fill="#DEDEDE" transform="translate(376,343)"/>
<path d="M0 0 C0.66 0.33 1.32 0.66 2 1 C-1.96 4.465 -1.96 4.465 -6 8 C-6.66 7.67 -7.32 7.34 -8 7 C-5.36 4.69 -2.72 2.38 0 0 Z " fill="#CBCBCB" transform="translate(342,300)"/>
<path d="M0 0 C0.66 0 1.32 0 2 0 C2.99 1.98 3.98 3.96 5 6 C3.35 5.67 1.7 5.34 0 5 C0 3.35 0 1.7 0 0 Z " fill="#2A2A28" transform="translate(329,349)"/>
<path d="M0 0 C1.9375 0.75 1.9375 0.75 4 2 C4.75 4.125 4.75 4.125 5 6 C4.01 6 3.02 6 2 6 C1.34 4.02 0.68 2.04 0 0 Z " fill="#292929" transform="translate(665,303)"/>
<path d="M0 0 C1.32 1.32 2.64 2.64 4 4 C3.01 4.66 2.02 5.32 1 6 C0.01 5.01 -0.98 4.02 -2 3 C-1.34 2.01 -0.68 1.02 0 0 Z " fill="#262626" transform="translate(369,345)"/>
</svg>
