<?xml version="1.0" encoding="UTF-8"?>
<svg version="1.1" xmlns="http://www.w3.org/2000/svg" width="1024" height="682">
<path d="M0 0 C337.92 0 675.84 0 1024 0 C1024 225.06 1024 450.12 1024 682 C686.08 682 348.16 682 0 682 C0 456.94 0 231.88 0 0 Z " fill="#1E1E1D" transform="translate(0,0)"/>
<path d="M0 0 C3.3 0 6.6 0 10 0 C10.61875 1.670625 10.61875 1.670625 11.25 3.375 C12.35546516 5.99320695 12.74880787 6.83493089 15.1875 8.4375 C15.785625 8.623125 16.38375 8.80875 17 9 C17 9.66 17 10.32 17 11 C17.99 11 18.98 11 20 11 C20 11.66 20 12.32 20 13 C20.99 13.33 21.98 13.66 23 14 C23.36783303 20.49838347 23.36783303 20.49838347 21.74609375 22.70996094 C19.60775718 24.28979461 18.51102999 24.36237449 15.875 24.328125 C15.08609375 24.32296875 14.2971875 24.3178125 13.484375 24.3125 C12.66453125 24.291875 11.8446875 24.27125 11 24.25 C10.18015625 24.24484375 9.3603125 24.2396875 8.515625 24.234375 C5.03015265 24.18881327 2.33648654 24.11216218 -1 23 C-1.1567564 15.28410183 -0.67453101 7.68483539 0 0 Z " fill="#161614" transform="translate(555,365)"/>
<path d="M0 0 C1.65 0 3.3 0 5 0 C5.33 2.97 5.66 5.94 6 9 C4.02 9.33 2.04 9.66 0 10 C0 6.7 0 3.4 0 0 Z " fill="#15181B" transform="translate(263,355)"/>
<path d="M0 0 C0.99 0 1.98 0 3 0 C2.85831863 1.43791516 2.71148957 2.8753237 2.5625 4.3125 C2.48128906 5.11300781 2.40007812 5.91351563 2.31640625 6.73828125 C2 9 2 9 1 12 C0.931009 14.06145107 0.91532273 16.12501401 0.9375 18.1875 C0.94652344 19.27417969 0.95554687 20.36085938 0.96484375 21.48046875 C0.97644531 22.31191406 0.98804688 23.14335937 1 24 C0.01 24 -0.98 24 -2 24 C-1.86076462 20.74968216 -1.71245815 17.49983939 -1.5625 14.25 C-1.52318359 13.32960938 -1.48386719 12.40921875 -1.44335938 11.4609375 C-1.40146484 10.57148438 -1.35957031 9.68203125 -1.31640625 8.765625 C-1.27974854 7.94868164 -1.24309082 7.13173828 -1.20532227 6.29003906 C-1.00865725 4.0965577 -0.59699406 2.11603587 0 0 Z " fill="#232226" transform="translate(507,341)"/>
<path d="M0 0 C0.66 0.66 1.32 1.32 2 2 C1.67 2.33 1.34 2.66 1 3 C1.020625 4.134375 1.04125 5.26875 1.0625 6.4375 C1 10 1 10 -1 12 C-2.87643761 10.12356239 -2.17984987 7.50194299 -2.23046875 5.0078125 C-2 3 -2 3 0 0 Z " fill="#21262A" transform="translate(306,341)"/>
<path d="M0 0 C0.99 0 1.98 0 3 0 C2.88637738 1.4800841 2.75877092 2.95910074 2.625 4.4375 C2.52058594 5.67306641 2.52058594 5.67306641 2.4140625 6.93359375 C2.27742188 7.61550781 2.14078125 8.29742187 2 9 C1.01 9.495 1.01 9.495 0 10 C-0.74926071 6.33694766 -1.2380014 3.57644848 0 0 Z " fill="#272A2E" transform="translate(507,341)"/>
<path d="M0 0 C0.66 0 1.32 0 2 0 C2.29296875 6.0546875 2.29296875 6.0546875 2 8 C1.01 8.66 0.02 9.32 -1 10 C-0.67 6.7 -0.34 3.4 0 0 Z " fill="#111618" transform="translate(576,331)"/>
<path d="M0 0 C0.33 0.99 0.66 1.98 1 3 C1.99 3.33 2.98 3.66 4 4 C2.68 4.99 1.36 5.98 0 7 C-0.66 5.35 -1.32 3.7 -2 2 C-1.34 1.34 -0.68 0.68 0 0 Z " fill="#161819" transform="translate(364,362)"/>
</svg>
