<svg width="1600" height="1040" viewBox="0 0 1600 1040" fill="none" xmlns="http://www.w3.org/2000/svg">
  <defs>
    <linearGradient id="afdb-bg" x1="120" y1="80" x2="1480" y2="980" gradientUnits="userSpaceOnUse">
      <stop stop-color="#0A1118"/>
      <stop offset="1" stop-color="#102534"/>
    </linearGradient>
    <linearGradient id="afdb-cloud" x1="920" y1="210" x2="1420" y2="430" gradientUnits="userSpaceOnUse">
      <stop stop-color="#D5F8A7"/>
      <stop offset="1" stop-color="#9EDC57"/>
    </linearGradient>
    <pattern id="afdb-grid" width="52" height="52" patternUnits="userSpaceOnUse">
      <path d="M52 0H0V52" stroke="#243D4D" stroke-width="1"/>
    </pattern>
  </defs>

  <rect width="1600" height="1040" fill="url(#afdb-bg)"/>
  <rect width="1600" height="1040" fill="url(#afdb-grid)" opacity="0.32"/>

  <rect x="90" y="120" width="1420" height="800" rx="28" fill="#111F2A" stroke="#2F4E60" stroke-width="2"/>

  <text x="160" y="212" fill="#E1EDF5" font-family="Manrope, sans-serif" font-size="52" font-weight="700">AfDB Analytics Cloud Migration</text>
  <text x="160" y="262" fill="#8EA7B6" font-family="Manrope, sans-serif" font-size="25">Modern data workloads moved to Oracle Analytics Cloud and OCI data services.</text>

  <rect x="160" y="320" width="540" height="240" rx="20" fill="#162B38"/>
  <rect x="210" y="500" width="38" height="30" rx="6" fill="#C1FF72"/>
  <rect x="262" y="472" width="38" height="58" rx="6" fill="#C1FF72"/>
  <rect x="314" y="430" width="38" height="100" rx="6" fill="#C1FF72"/>
  <rect x="366" y="384" width="38" height="146" rx="6" fill="#C1FF72"/>
  <path d="M442 488L486 448L530 470L578 410L644 438" stroke="#A7F16A" stroke-width="8" stroke-linecap="round" stroke-linejoin="round"/>
  <circle cx="442" cy="488" r="6" fill="#A7F16A"/>
  <circle cx="486" cy="448" r="6" fill="#A7F16A"/>
  <circle cx="530" cy="470" r="6" fill="#A7F16A"/>
  <circle cx="578" cy="410" r="6" fill="#A7F16A"/>
  <circle cx="644" cy="438" r="6" fill="#A7F16A"/>

  <path d="M1004 320C1038 268 1092 242 1150 242C1201 242 1247 262 1276 300C1292 293 1311 289 1331 289C1390 289 1438 337 1438 396C1438 455 1390 503 1331 503H1018C948 503 892 447 892 377C892 307 948 251 1018 251C1013 273 1012 295 1014 320Z" fill="url(#afdb-cloud)"/>

  <rect x="240" y="676" width="255" height="150" rx="16" fill="#1A3443"/>
  <text x="274" y="735" fill="#D6E5EF" font-family="Manrope, sans-serif" font-size="28" font-weight="700">Source DW</text>
  <rect x="535" y="676" width="255" height="150" rx="16" fill="#1A3443"/>
  <text x="575" y="735" fill="#D6E5EF" font-family="Manrope, sans-serif" font-size="28" font-weight="700">ETL Layer</text>
  <rect x="830" y="676" width="255" height="150" rx="16" fill="#1A3443"/>
  <text x="875" y="735" fill="#D6E5EF" font-family="Manrope, sans-serif" font-size="28" font-weight="700">OCI Data</text>
  <rect x="1125" y="676" width="255" height="150" rx="16" fill="#1A3443"/>
  <text x="1149" y="735" fill="#D6E5EF" font-family="Manrope, sans-serif" font-size="28" font-weight="700">OAC Insights</text>

  <path d="M498 750H530" stroke="#C1FF72" stroke-width="8" stroke-linecap="round"/>
  <path d="M793 750H825" stroke="#C1FF72" stroke-width="8" stroke-linecap="round"/>
  <path d="M1088 750H1120" stroke="#C1FF72" stroke-width="8" stroke-linecap="round"/>

  <path d="M1210 506V620" stroke="#C1FF72" stroke-width="7" stroke-linecap="round" stroke-dasharray="12 14"/>
  <path d="M1190 602L1210 632L1230 602" fill="none" stroke="#C1FF72" stroke-width="7" stroke-linecap="round" stroke-linejoin="round"/>

  <circle cx="120" cy="82" r="18" fill="#C1FF72"/>
  <text x="152" y="91" fill="#DDEAF2" font-family="Manrope, sans-serif" font-size="28" font-weight="700">PCE-TECH PROJECT VISUAL</text>
</svg>
