<svg width="1600" height="1040" viewBox="0 0 1600 1040" fill="none" xmlns="http://www.w3.org/2000/svg">
  <defs>
    <linearGradient id="gfs-bg" x1="80" y1="60" x2="1520" y2="980" gradientUnits="userSpaceOnUse">
      <stop stop-color="#0B141B"/>
      <stop offset="1" stop-color="#1A2A34"/>
    </linearGradient>
    <linearGradient id="gfs-accent" x1="0" y1="0" x2="1" y2="1">
      <stop stop-color="#C1FF72"/>
      <stop offset="1" stop-color="#7FCB3B"/>
    </linearGradient>
    <pattern id="gfs-grid" width="48" height="48" patternUnits="userSpaceOnUse">
      <path d="M48 0H0V48" stroke="#2C3F4A" stroke-width="1"/>
    </pattern>
  </defs>

  <rect width="1600" height="1040" fill="url(#gfs-bg)"/>
  <rect width="1600" height="1040" fill="url(#gfs-grid)" opacity="0.35"/>

  <circle cx="250" cy="220" r="170" fill="#C1FF72" opacity="0.08"/>
  <circle cx="1410" cy="890" r="220" fill="#C1FF72" opacity="0.09"/>

  <rect x="110" y="210" width="560" height="620" rx="28" fill="#111E27" stroke="#335163" stroke-width="2"/>
  <rect x="190" y="280" width="400" height="56" rx="12" fill="#C1FF72" opacity="0.2"/>
  <rect x="150" y="370" width="480" height="16" rx="8" fill="#3B5564"/>
  <rect x="150" y="418" width="480" height="16" rx="8" fill="#3B5564"/>
  <rect x="150" y="466" width="480" height="16" rx="8" fill="#3B5564"/>

  <path d="M390 540L220 630H560L390 540Z" fill="#243A47" stroke="#4C6A7B" stroke-width="2"/>
  <rect x="245" y="630" width="290" height="120" rx="10" fill="#1A2C37"/>
  <rect x="280" y="645" width="44" height="90" rx="8" fill="#2D4A59"/>
  <rect x="345" y="645" width="44" height="90" rx="8" fill="#2D4A59"/>
  <rect x="410" y="645" width="44" height="90" rx="8" fill="#2D4A59"/>
  <rect x="475" y="645" width="44" height="90" rx="8" fill="#2D4A59"/>

  <rect x="760" y="170" width="740" height="320" rx="24" fill="#111E27" stroke="#335163" stroke-width="2"/>
  <text x="815" y="235" fill="#E4EFF5" font-family="Manrope, sans-serif" font-size="42" font-weight="700">Government Financial System</text>
  <text x="815" y="282" fill="#8EA5B3" font-family="Manrope, sans-serif" font-size="24">Public-sector Oracle EBS budget and treasury visibility</text>

  <rect x="815" y="320" width="180" height="120" rx="14" fill="#1F323E"/>
  <rect x="1015" y="320" width="180" height="120" rx="14" fill="#1F323E"/>
  <rect x="1215" y="320" width="240" height="120" rx="14" fill="#1F323E"/>

  <rect x="845" y="400" width="24" height="28" rx="4" fill="#C1FF72"/>
  <rect x="879" y="378" width="24" height="50" rx="4" fill="#C1FF72"/>
  <rect x="913" y="346" width="24" height="82" rx="4" fill="#C1FF72"/>

  <path d="M1038 405L1080 365L1120 388L1168 338" stroke="#C1FF72" stroke-width="8" stroke-linecap="round" stroke-linejoin="round"/>
  <circle cx="1038" cy="405" r="7" fill="#C1FF72"/>
  <circle cx="1080" cy="365" r="7" fill="#C1FF72"/>
  <circle cx="1120" cy="388" r="7" fill="#C1FF72"/>
  <circle cx="1168" cy="338" r="7" fill="#C1FF72"/>

  <rect x="1244" y="346" width="182" height="22" rx="11" fill="#334C59"/>
  <rect x="1244" y="382" width="150" height="22" rx="11" fill="#334C59"/>
  <rect x="1244" y="418" width="110" height="22" rx="11" fill="#334C59"/>

  <rect x="760" y="530" width="740" height="300" rx="24" fill="#111E27" stroke="#335163" stroke-width="2"/>
  <text x="815" y="596" fill="#E4EFF5" font-family="Manrope, sans-serif" font-size="34" font-weight="700">Budget Control and Disbursement</text>

  <rect x="815" y="634" width="300" height="66" rx="12" fill="#1B2D38"/>
  <text x="840" y="676" fill="#C1FF72" font-family="Manrope, sans-serif" font-size="28" font-weight="700">NGN 4.8B Approved</text>

  <rect x="815" y="716" width="300" height="66" rx="12" fill="#1B2D38"/>
  <text x="840" y="758" fill="#9FC5D8" font-family="Manrope, sans-serif" font-size="28" font-weight="700">NGN 4.2B Released</text>

  <rect x="1145" y="634" width="325" height="148" rx="16" fill="#1B2D38"/>
  <path d="M1174 750L1220 706L1262 724L1320 666L1370 694L1438 642" stroke="#C1FF72" stroke-width="8" stroke-linecap="round" stroke-linejoin="round"/>

  <circle cx="128" cy="128" r="20" fill="url(#gfs-accent)"/>
  <text x="164" y="137" fill="#DDEAF1" font-family="Manrope, sans-serif" font-size="30" font-weight="700">PCE-TECH PROJECT VISUAL</text>
</svg>
