<svg width="1600" height="1040" viewBox="0 0 1600 1040" fill="none" xmlns="http://www.w3.org/2000/svg">
  <defs>
    <linearGradient id="ha-bg" x1="100" y1="80" x2="1500" y2="990" gradientUnits="userSpaceOnUse">
      <stop stop-color="#0A1218"/>
      <stop offset="1" stop-color="#162A34"/>
    </linearGradient>
    <linearGradient id="ha-sync" x1="380" y1="550" x2="1220" y2="550" gradientUnits="userSpaceOnUse">
      <stop stop-color="#8FE255"/>
      <stop offset="0.5" stop-color="#C1FF72"/>
      <stop offset="1" stop-color="#8FE255"/>
    </linearGradient>
  </defs>

  <rect width="1600" height="1040" fill="url(#ha-bg)"/>

  <g opacity="0.32" stroke="#2A4451" stroke-width="1.5">
    <path d="M0 250H1600"/>
    <path d="M0 420H1600"/>
    <path d="M0 590H1600"/>
    <path d="M0 760H1600"/>
  </g>

  <text x="130" y="170" fill="#E3EEF4" font-family="Manrope, sans-serif" font-size="54" font-weight="700">High Availability Database Platform</text>
  <text x="130" y="226" fill="#93A8B6" font-family="Manrope, sans-serif" font-size="25">RAC and Data Guard architecture with continuous replication and rapid failover.</text>

  <rect x="150" y="300" width="500" height="560" rx="26" fill="#132430" stroke="#355769" stroke-width="2"/>
  <rect x="950" y="300" width="500" height="560" rx="26" fill="#132430" stroke="#355769" stroke-width="2"/>

  <text x="300" y="365" fill="#D7E6EF" font-family="Manrope, sans-serif" font-size="30" font-weight="700">Primary Site</text>
  <text x="1108" y="365" fill="#D7E6EF" font-family="Manrope, sans-serif" font-size="30" font-weight="700">Standby Site</text>

  <g fill="#1B3341">
    <rect x="220" y="420" width="360" height="100" rx="14"/>
    <rect x="220" y="545" width="360" height="100" rx="14"/>
    <rect x="220" y="670" width="360" height="100" rx="14"/>
    <rect x="1020" y="420" width="360" height="100" rx="14"/>
    <rect x="1020" y="545" width="360" height="100" rx="14"/>
    <rect x="1020" y="670" width="360" height="100" rx="14"/>
  </g>

  <g stroke="#C1FF72" stroke-width="6" stroke-linecap="round">
    <path d="M580 470H1020"/>
    <path d="M580 595H1020"/>
    <path d="M580 720H1020"/>
  </g>

  <path d="M986 450L1020 470L986 490" fill="none" stroke="#C1FF72" stroke-width="6" stroke-linecap="round" stroke-linejoin="round"/>
  <path d="M614 575L580 595L614 615" fill="none" stroke="#C1FF72" stroke-width="6" stroke-linecap="round" stroke-linejoin="round"/>
  <path d="M986 700L1020 720L986 740" fill="none" stroke="#C1FF72" stroke-width="6" stroke-linecap="round" stroke-linejoin="round"/>

  <circle cx="800" cy="560" r="140" fill="#14242D" stroke="#4A6A57" stroke-width="3"/>
  <circle cx="800" cy="560" r="114" stroke="url(#ha-sync)" stroke-width="18" stroke-linecap="round" stroke-dasharray="500 220"/>
  <text x="712" y="548" fill="#E7F4EC" font-family="Manrope, sans-serif" font-size="44" font-weight="800">99.99%</text>
  <text x="727" y="595" fill="#B4D3BE" font-family="Manrope, sans-serif" font-size="24">Availability</text>

  <path d="M705 560L748 560L772 518L806 610L838 540L872 560H895" stroke="#C1FF72" stroke-width="8" stroke-linecap="round" stroke-linejoin="round"/>

  <rect x="140" y="912" width="1320" height="74" rx="16" fill="#182E39" stroke="#365869" stroke-width="2"/>
  <text x="182" y="958" fill="#D6E6EF" font-family="Manrope, sans-serif" font-size="29" font-weight="700">Synchronous replication, automatic role transition, and resilient database continuity for mission-critical workloads.</text>

  <circle cx="122" cy="92" r="18" fill="#C1FF72"/>
  <text x="154" y="101" fill="#DDEAF2" font-family="Manrope, sans-serif" font-size="28" font-weight="700">PCE-TECH PROJECT VISUAL</text>
</svg>
