<svg width="1600" height="1040" viewBox="0 0 1600 1040" fill="none" xmlns="http://www.w3.org/2000/svg">
  <defs>
    <linearGradient id="oci-bg" x1="100" y1="50" x2="1520" y2="980" gradientUnits="userSpaceOnUse">
      <stop stop-color="#0C131A"/>
      <stop offset="1" stop-color="#1A2F3B"/>
    </linearGradient>
    <linearGradient id="oci-pipe" x1="400" y1="560" x2="1280" y2="560" gradientUnits="userSpaceOnUse">
      <stop stop-color="#7DC43C"/>
      <stop offset="0.5" stop-color="#C1FF72"/>
      <stop offset="1" stop-color="#7DC43C"/>
    </linearGradient>
  </defs>

  <rect width="1600" height="1040" fill="url(#oci-bg)"/>

  <text x="120" y="164" fill="#E4EFF5" font-family="Manrope, sans-serif" font-size="54" font-weight="700">Oracle EBS to OCI Migration Factory</text>
  <text x="120" y="219" fill="#90A9B7" font-family="Manrope, sans-serif" font-size="25">Factory-based migration delivery from assessment through cutover and managed operations.</text>

  <rect x="90" y="280" width="1420" height="640" rx="28" fill="#12222D" stroke="#335364" stroke-width="2"/>

  <rect x="140" y="390" width="220" height="260" rx="20" fill="#1A313D"/>
  <text x="182" y="455" fill="#D6E6EF" font-family="Manrope, sans-serif" font-size="30" font-weight="700">Source</text>
  <text x="176" y="495" fill="#9DB5C3" font-family="Manrope, sans-serif" font-size="24">EBS Core</text>
  <rect x="180" y="530" width="140" height="20" rx="10" fill="#47606F"/>
  <rect x="180" y="564" width="140" height="20" rx="10" fill="#47606F"/>

  <path d="M360 520H1280" stroke="url(#oci-pipe)" stroke-width="12" stroke-linecap="round" stroke-dasharray="18 16"/>
  <path d="M1245 487L1298 520L1245 553" fill="none" stroke="#C1FF72" stroke-width="10" stroke-linecap="round" stroke-linejoin="round"/>

  <g>
    <rect x="430" y="410" width="170" height="220" rx="18" fill="#1A313D" stroke="#3C6074" stroke-width="2"/>
    <text x="455" y="470" fill="#D9E9F1" font-family="Manrope, sans-serif" font-size="24" font-weight="700">Discover</text>
    <rect x="454" y="500" width="122" height="14" rx="7" fill="#C1FF72" opacity="0.75"/>
    <rect x="454" y="525" width="90" height="14" rx="7" fill="#4A687A"/>
  </g>
  <g>
    <rect x="640" y="410" width="170" height="220" rx="18" fill="#1A313D" stroke="#3C6074" stroke-width="2"/>
    <text x="669" y="470" fill="#D9E9F1" font-family="Manrope, sans-serif" font-size="24" font-weight="700">Transform</text>
    <rect x="664" y="500" width="122" height="14" rx="7" fill="#C1FF72" opacity="0.75"/>
    <rect x="664" y="525" width="102" height="14" rx="7" fill="#4A687A"/>
  </g>
  <g>
    <rect x="850" y="410" width="170" height="220" rx="18" fill="#1A313D" stroke="#3C6074" stroke-width="2"/>
    <text x="885" y="470" fill="#D9E9F1" font-family="Manrope, sans-serif" font-size="24" font-weight="700">Validate</text>
    <rect x="874" y="500" width="122" height="14" rx="7" fill="#C1FF72" opacity="0.75"/>
    <rect x="874" y="525" width="84" height="14" rx="7" fill="#4A687A"/>
  </g>
  <g>
    <rect x="1060" y="410" width="170" height="220" rx="18" fill="#1A313D" stroke="#3C6074" stroke-width="2"/>
    <text x="1100" y="470" fill="#D9E9F1" font-family="Manrope, sans-serif" font-size="24" font-weight="700">Cutover</text>
    <rect x="1084" y="500" width="122" height="14" rx="7" fill="#C1FF72" opacity="0.75"/>
    <rect x="1084" y="525" width="98" height="14" rx="7" fill="#4A687A"/>
  </g>

  <path d="M1338 392C1362 355 1402 334 1446 334C1488 334 1526 353 1546 383C1566 381 1584 387 1597 400C1636 440 1607 505 1550 505H1342C1285 505 1248 440 1274 392C1287 368 1310 355 1338 355V392Z" fill="#C1FF72" opacity="0.83"/>
  <text x="1365" y="446" fill="#1A2D1E" font-family="Manrope, sans-serif" font-size="30" font-weight="800">OCI</text>

  <rect x="220" y="720" width="1160" height="140" rx="18" fill="#172C37"/>
  <text x="270" y="782" fill="#D5E6EF" font-family="Manrope, sans-serif" font-size="30" font-weight="700">Factory Throughput</text>
  <rect x="270" y="810" width="1040" height="18" rx="9" fill="#2E495A"/>
  <rect x="270" y="810" width="870" height="18" rx="9" fill="#C1FF72"/>
  <text x="1172" y="825" fill="#D5E6EF" font-family="Manrope, sans-serif" font-size="20" font-weight="700">84% Complete</text>

  <circle cx="122" cy="92" r="18" fill="#C1FF72"/>
  <text x="154" y="101" fill="#DDEAF2" font-family="Manrope, sans-serif" font-size="28" font-weight="700">PCE-TECH PROJECT VISUAL</text>
</svg>
