<svg width="1600" height="1040" viewBox="0 0 1600 1040" fill="none" xmlns="http://www.w3.org/2000/svg">
  <defs>
    <linearGradient id="ssnit-bg" x1="150" y1="70" x2="1460" y2="980" gradientUnits="userSpaceOnUse">
      <stop stop-color="#0D141A"/>
      <stop offset="1" stop-color="#1B2531"/>
    </linearGradient>
    <linearGradient id="ssnit-acc" x1="0" y1="0" x2="1" y2="1">
      <stop stop-color="#C1FF72"/>
      <stop offset="1" stop-color="#7BC63B"/>
    </linearGradient>
    <pattern id="ssnit-dots" width="26" height="26" patternUnits="userSpaceOnUse">
      <circle cx="2" cy="2" r="1.4" fill="#314A57"/>
    </pattern>
  </defs>

  <rect width="1600" height="1040" fill="url(#ssnit-bg)"/>
  <rect width="1600" height="1040" fill="url(#ssnit-dots)" opacity="0.45"/>

  <text x="130" y="170" fill="#E3EEF5" font-family="Manrope, sans-serif" font-size="54" font-weight="700">SSNIT EBS Upgrade and DB Migration</text>
  <text x="130" y="224" fill="#8DA3B1" font-family="Manrope, sans-serif" font-size="25">Controlled cutover from legacy Oracle environments to modernized production platforms.</text>

  <rect x="120" y="280" width="1360" height="640" rx="28" fill="#13212B" stroke="#304C5E" stroke-width="2"/>

  <text x="220" y="354" fill="#AFC2CE" font-family="Manrope, sans-serif" font-size="30" font-weight="700">Legacy Stack</text>
  <text x="1050" y="354" fill="#AFC2CE" font-family="Manrope, sans-serif" font-size="30" font-weight="700">Target Stack</text>

  <ellipse cx="350" cy="440" rx="140" ry="36" fill="#2B3D49"/>
  <rect x="210" y="440" width="280" height="170" fill="#1B2C37"/>
  <ellipse cx="350" cy="610" rx="140" ry="36" fill="#243743"/>
  <ellipse cx="350" cy="560" rx="140" ry="36" fill="#2B3D49"/>
  <ellipse cx="350" cy="510" rx="140" ry="36" fill="#324754"/>

  <ellipse cx="1250" cy="440" rx="140" ry="36" fill="#426235"/>
  <rect x="1110" y="440" width="280" height="170" fill="#223A28"/>
  <ellipse cx="1250" cy="610" rx="140" ry="36" fill="#3A5A30"/>
  <ellipse cx="1250" cy="560" rx="140" ry="36" fill="#476E3A"/>
  <ellipse cx="1250" cy="510" rx="140" ry="36" fill="#5B8A49"/>

  <path d="M560 500H1020" stroke="#C1FF72" stroke-width="10" stroke-linecap="round" stroke-dasharray="16 14"/>
  <path d="M980 468L1030 500L980 532" fill="none" stroke="#C1FF72" stroke-width="10" stroke-linecap="round" stroke-linejoin="round"/>

  <rect x="630" y="402" width="300" height="196" rx="18" fill="#1A2E39"/>
  <text x="660" y="462" fill="#D4E4EC" font-family="Manrope, sans-serif" font-size="30" font-weight="700">Migration Waves</text>

  <rect x="660" y="492" width="240" height="18" rx="9" fill="#304753"/>
  <rect x="660" y="492" width="86" height="18" rx="9" fill="url(#ssnit-acc)"/>

  <rect x="660" y="526" width="240" height="18" rx="9" fill="#304753"/>
  <rect x="660" y="526" width="156" height="18" rx="9" fill="url(#ssnit-acc)"/>

  <rect x="660" y="560" width="240" height="18" rx="9" fill="#304753"/>
  <rect x="660" y="560" width="228" height="18" rx="9" fill="url(#ssnit-acc)"/>

  <rect x="180" y="706" width="1240" height="154" rx="18" fill="#172A34"/>
  <text x="230" y="768" fill="#D4E4EC" font-family="Manrope, sans-serif" font-size="30" font-weight="700">Cutover</text>
  <text x="230" y="815" fill="#9EB5C1" font-family="Manrope, sans-serif" font-size="25">Schema conversion, data validation, and high-availability switchover completed.</text>

  <circle cx="122" cy="92" r="18" fill="#C1FF72"/>
  <text x="154" y="101" fill="#DDEAF2" font-family="Manrope, sans-serif" font-size="28" font-weight="700">PCE-TECH PROJECT VISUAL</text>
</svg>
