<svg width="1600" height="1040" viewBox="0 0 1600 1040" fill="none" xmlns="http://www.w3.org/2000/svg">
  <defs>
    <linearGradient id="ifmis-bg" x1="120" y1="40" x2="1520" y2="980" gradientUnits="userSpaceOnUse">
      <stop stop-color="#0D1620"/>
      <stop offset="1" stop-color="#162938"/>
    </linearGradient>
    <linearGradient id="ifmis-core" x1="670" y1="350" x2="930" y2="690" gradientUnits="userSpaceOnUse">
      <stop stop-color="#D0FFA0"/>
      <stop offset="1" stop-color="#7AC73C"/>
    </linearGradient>
  </defs>

  <rect width="1600" height="1040" fill="url(#ifmis-bg)"/>

  <g opacity="0.35" stroke="#264150" stroke-width="1.5">
    <path d="M0 230H1600"/>
    <path d="M0 390H1600"/>
    <path d="M0 550H1600"/>
    <path d="M0 710H1600"/>
    <path d="M210 0V1040"/>
    <path d="M520 0V1040"/>
    <path d="M830 0V1040"/>
    <path d="M1140 0V1040"/>
    <path d="M1450 0V1040"/>
  </g>

  <text x="130" y="170" fill="#E4EFF5" font-family="Manrope, sans-serif" font-size="54" font-weight="700">State IFMIS Implementations</text>
  <text x="130" y="225" fill="#93AABB" font-family="Manrope, sans-serif" font-size="25">Connected financial operations across multiple state entities through Oracle ERP governance.</text>

  <circle cx="800" cy="560" r="160" fill="url(#ifmis-core)" opacity="0.26"/>
  <rect x="665" y="430" width="270" height="260" rx="30" fill="#1E323F" stroke="#5D8A6B" stroke-width="3"/>
  <text x="735" y="550" fill="#E8F6EF" font-family="Manrope, sans-serif" font-size="52" font-weight="700">IFMIS</text>
  <text x="703" y="602" fill="#B9D8C4" font-family="Manrope, sans-serif" font-size="24">Central ERP Hub</text>

  <g fill="#182A35" stroke="#3B5C6E" stroke-width="2">
    <rect x="210" y="360" width="250" height="145" rx="18"/>
    <rect x="210" y="625" width="250" height="145" rx="18"/>
    <rect x="500" y="760" width="250" height="145" rx="18"/>
    <rect x="850" y="760" width="250" height="145" rx="18"/>
    <rect x="1140" y="625" width="250" height="145" rx="18"/>
    <rect x="1140" y="360" width="250" height="145" rx="18"/>
  </g>

  <g fill="#D5E7F2" font-family="Manrope, sans-serif" font-size="27" font-weight="700">
    <text x="255" y="445">State A</text>
    <text x="255" y="710">State B</text>
    <text x="548" y="845">State C</text>
    <text x="898" y="845">State D</text>
    <text x="1185" y="710">State E</text>
    <text x="1185" y="445">State F</text>
  </g>

  <g stroke="#C1FF72" stroke-width="6" stroke-linecap="round" stroke-dasharray="10 12">
    <path d="M460 432H665"/>
    <path d="M460 696H665"/>
    <path d="M745 760V690"/>
    <path d="M855 760V690"/>
    <path d="M935 432H1140"/>
    <path d="M935 696H1140"/>
  </g>

  <g fill="#C1FF72">
    <circle cx="520" cy="432" r="8"/>
    <circle cx="520" cy="696" r="8"/>
    <circle cx="745" cy="730" r="8"/>
    <circle cx="855" cy="730" r="8"/>
    <circle cx="1080" cy="432" r="8"/>
    <circle cx="1080" cy="696" r="8"/>
  </g>

  <rect x="130" y="930" width="1340" height="64" rx="14" fill="#182A35" stroke="#355567" stroke-width="2"/>
  <text x="170" y="972" fill="#D2E2EC" font-family="Manrope, sans-serif" font-size="28" font-weight="700">Standardized chart of accounts, procurement, payroll, and treasury controls across participating states.</text>

  <circle cx="122" cy="92" r="18" fill="#C1FF72"/>
  <text x="154" y="101" fill="#DDEAF2" font-family="Manrope, sans-serif" font-size="28" font-weight="700">PCE-TECH PROJECT VISUAL</text>
</svg>
